<svg width="50" height="50" viewBox="0 0 50 50" fill="none" xmlns="http://www.w3.org/2000/svg">
<g clip-path="url(#clip0_1405_1362)">
<path d="M35.0001 5.41675C33.1617 5.41675 31.6668 6.91177 31.6668 8.75005V9.35259L12.1901 17.1426C11.8743 17.2702 11.6667 17.5759 11.6667 17.9167V29.5834C11.6667 29.9243 11.8743 30.2301 12.1901 30.3568L31.6668 38.1468V38.7501C31.6668 40.5885 33.1618 42.0834 35.0001 42.0834C36.8383 42.0834 38.3334 40.5884 38.3334 38.7501V8.75005C38.3334 6.91167 36.8384 5.41675 35.0001 5.41675ZM36.6668 38.75C36.6668 39.6692 35.9193 40.4167 35.0001 40.4167C34.0808 40.4167 33.3334 39.6693 33.3334 38.75V37.5833C33.3334 37.2416 33.1258 36.9359 32.8092 36.8092L13.3334 29.0192V18.4809L32.8092 10.6909C33.1259 10.5633 33.3334 10.2576 33.3334 9.91675V8.75005C33.3334 7.83091 34.0808 7.08335 35.0001 7.08335C35.9193 7.08335 36.6668 7.83081 36.6668 8.75005V38.75Z" fill="white"/>
<path d="M12.5 17.0833H6.6667C2.99082 17.0833 0 20.0741 0 23.75C0 27.4258 2.99082 30.4167 6.6667 30.4167H12.5C12.96 30.4167 13.3333 30.0442 13.3333 29.5834V17.9167C13.3333 17.4566 12.96 17.0833 12.5 17.0833ZM11.6667 28.75H6.6667C3.90918 28.75 1.6667 26.5075 1.6667 23.75C1.6667 20.9924 3.90918 18.75 6.6667 18.75H11.6667V28.75Z" fill="white"/>
<path d="M42.7634 20.4591L37.7634 18.7924C37.5084 18.7082 37.2309 18.7507 37.0125 18.9075C36.7951 19.0641 36.6667 19.3158 36.6667 19.5833V27.9166C36.6667 28.1841 36.7951 28.4358 37.0125 28.5933C37.1567 28.6966 37.3276 28.7499 37.5 28.7499C37.5884 28.7499 37.6776 28.7358 37.7634 28.7066L42.7634 27.0399C43.1042 26.9274 43.3334 26.609 43.3334 26.2498V21.2498C43.3334 20.8908 43.1042 20.5733 42.7634 20.4591ZM41.6667 25.6491L38.3334 26.7599V20.7391L41.6667 21.8499V25.6491Z" fill="white"/>
<path d="M16.5892 39.9941L15.7525 39.1566L13.3084 29.3816C13.2159 29.0108 12.8825 28.75 12.5001 28.75H5.8333C5.57832 28.75 5.33828 28.8667 5.17998 29.065C5.02168 29.265 4.96328 29.5259 5.02168 29.7742L8.35498 43.9409C8.4458 44.3234 8.78662 44.5834 9.16582 44.5834C9.21836 44.5834 9.2708 44.5784 9.32412 44.5676L15.5824 43.3593C15.5907 43.3576 15.5991 43.356 15.6074 43.3543C15.9741 43.2718 16.3091 43.0885 16.5758 42.826C16.9558 42.4501 17.1666 41.9501 17.1699 41.4151C17.1733 40.8809 16.9684 40.3775 16.5892 39.9941ZM15.405 41.6392C15.3625 41.6816 15.3092 41.7108 15.2508 41.7258L9.79492 42.78L6.88575 30.4166H11.8491L14.1925 39.785C14.2291 39.9316 14.305 40.0658 14.4116 40.1725L15.4083 41.1691C15.4925 41.2533 15.5041 41.3524 15.5041 41.405C15.5033 41.4559 15.49 41.555 15.405 41.6392Z" fill="white"/>
<path d="M50 22.9167H45V24.5834H50V22.9167Z" fill="white"/>
<path d="M48.7358 13.0374L44.5696 15.5378L45.4272 16.9668L49.5934 14.4663L48.7358 13.0374Z" fill="white"/>
<path d="M45.4345 30.5349L44.577 31.9641L48.7438 34.4642L49.6013 33.035L45.4345 30.5349Z" fill="white"/>
<path d="M33.3334 9.58325H31.6667V37.9165H33.3334V9.58325Z" fill="white"/>
<path d="M9.99995 20.4167H8.33325V23.75H9.99995V20.4167Z" fill="white"/>
<path d="M6.6667 20.4167H5V23.75H6.6667V20.4167Z" fill="white"/>
</g>
<defs>
<clipPath id="clip0_1405_1362">
<rect width="50" height="50" fill="white"/>
</clipPath>
</defs>
</svg>
