<svg width="40" height="40" viewBox="0 0 40 40" fill="none" xmlns="http://www.w3.org/2000/svg">
<g clip-path="url(#clip0_1405_1316)">
<path d="M27.9999 4.33337C26.5292 4.33337 25.3333 5.52939 25.3333 7.00001V7.48205L9.75192 13.7141C9.49927 13.8161 9.33325 14.0607 9.33325 14.3334V23.6667C9.33325 23.9394 9.49927 24.1841 9.75192 24.2854L25.3333 30.5174V31.0001C25.3333 32.4708 26.5293 33.6667 27.9999 33.6667C29.4705 33.6667 30.6665 32.4707 30.6665 31.0001V7.00001C30.6665 5.52931 29.4706 4.33337 27.9999 4.33337ZM29.3333 31C29.3333 31.7353 28.7353 32.3334 27.9999 32.3334C27.2645 32.3334 26.6665 31.7354 26.6665 31V30.0667C26.6665 29.7933 26.5005 29.5487 26.2472 29.4474L10.6665 23.2153V14.7847L26.2472 8.55267C26.5006 8.45064 26.6665 8.20603 26.6665 7.93337V7.00001C26.6665 6.2647 27.2645 5.66665 27.9999 5.66665C28.7353 5.66665 29.3333 6.26462 29.3333 7.00001V31Z" fill="white"/>
<path d="M10 13.6666H5.33336C2.39266 13.6666 0 16.0593 0 19C0 21.9407 2.39266 24.3333 5.33336 24.3333H10C10.368 24.3333 10.6666 24.0354 10.6666 23.6667V14.3333C10.6666 13.9653 10.368 13.6666 10 13.6666ZM9.33336 23H5.33336C3.12734 23 1.33336 21.206 1.33336 19C1.33336 16.794 3.12734 15 5.33336 15H9.33336V23Z" fill="white"/>
<path d="M34.2106 16.3673L30.2106 15.0339C30.0066 14.9666 29.7846 15.0006 29.6099 15.126C29.4359 15.2513 29.3333 15.4526 29.3333 15.6667V22.3333C29.3333 22.5473 29.4359 22.7486 29.6099 22.8746C29.7252 22.9573 29.8619 23 29.9999 23C30.0706 23 30.1419 22.9886 30.2106 22.9653L34.2106 21.6319C34.4833 21.5419 34.6666 21.2872 34.6666 20.9999V16.9999C34.6665 16.7126 34.4833 16.4586 34.2106 16.3673ZM33.3333 20.5193L30.6666 21.4079V16.5913L33.3333 17.48V20.5193Z" fill="white"/>
<path d="M13.2712 31.9953L12.6019 31.3253L10.6466 23.5053C10.5726 23.2087 10.3059 23 9.99998 23H4.66655C4.46256 23 4.27053 23.0934 4.14389 23.252C4.01725 23.412 3.97053 23.6207 4.01725 23.8194L6.68389 35.1527C6.75655 35.4587 7.0292 35.6667 7.33256 35.6667C7.37459 35.6667 7.41654 35.6627 7.4592 35.6541L12.4658 34.6874C12.4725 34.6861 12.4792 34.6848 12.4858 34.6834C12.7792 34.6174 13.0472 34.4708 13.2605 34.2608C13.5645 33.9601 13.7332 33.5601 13.7358 33.1321C13.7386 32.7047 13.5746 32.302 13.2712 31.9953ZM12.3239 33.3113C12.2899 33.3453 12.2472 33.3687 12.2005 33.3806L7.83584 34.224L5.5085 24.3333H9.4792L11.3539 31.828C11.3832 31.9453 11.4439 32.0527 11.5292 32.138L12.3265 32.9353C12.3939 33.0027 12.4032 33.082 12.4032 33.124C12.4026 33.1647 12.3919 33.244 12.3239 33.3113Z" fill="white"/>
<path d="M40 18.3334H36V19.6667H40V18.3334Z" fill="white"/>
<path d="M38.9887 10.4298L35.6558 12.4302L36.3419 13.5733L39.6748 11.5729L38.9887 10.4298Z" fill="white"/>
<path d="M36.3476 24.4279L35.6616 25.5713L38.995 27.5713L39.681 26.428L36.3476 24.4279Z" fill="white"/>
<path d="M26.6666 7.66663H25.3333V30.3333H26.6666V7.66663Z" fill="white"/>
<path d="M8.00011 16.3334H6.66675V19H8.00011V16.3334Z" fill="white"/>
<path d="M5.33336 16.3334H4V19H5.33336V16.3334Z" fill="white"/>
</g>
<defs>
<clipPath id="clip0_1405_1316">
<rect width="40" height="40" fill="white"/>
</clipPath>
</defs>
</svg>
