<svg width="137" height="40" viewBox="0 0 137 40" fill="none" xmlns="http://www.w3.org/2000/svg">
<path d="M93.6219 10.9781L93.6219 -0.00457764L82.8279 -0.00457764L82.8279 10.9781L93.6219 10.9781Z" fill="#DEE2E3"/>
<path d="M82.7563 10.9782L82.7563 -0.00445747L71.9623 -0.00445747L71.9623 10.9782L82.7563 10.9782Z" fill="#C6D0D9"/>
<path d="M71.8882 10.9873L71.8882 0.00468063L61.0941 0.00468063L61.0941 10.9873L71.8882 10.9873Z" fill="#D3D9DC"/>
<path d="M71.9476 33.0197L82.7417 33.0197L82.7417 22.037L71.9476 22.037L71.9476 33.0197Z" fill="#D3D9DC"/>
<path d="M71.9476 21.9642L82.7417 21.9642L82.7417 10.9816L71.9476 10.9816L71.9476 21.9642Z" fill="#DEE2E3"/>
<path d="M0 32.9375V12.1234H13.7499V16.3547H4.77018V20.2956H13.2607V24.3194H4.77018V28.644H14.2698V32.9375H0Z" fill="#F19349"/>
<path d="M17.0727 20.2956C17.9187 19.4763 18.9074 18.854 20.0388 18.4392C21.1702 18.0244 22.3118 17.817 23.4941 17.817C24.7071 17.817 25.7365 17.9725 26.5723 18.2733C27.4081 18.574 28.0911 19.0511 28.6109 19.6837C29.1307 20.3163 29.5078 21.1252 29.7525 22.0897C29.9971 23.0646 30.1092 24.2157 30.1092 25.5432V32.9272H25.7773V31.3715H25.6856C25.3186 31.9834 24.7682 32.4501 24.0242 32.782C23.2801 33.1138 22.4749 33.2798 21.6085 33.2798C21.0275 33.2798 20.4363 33.1968 19.8146 33.0412C19.1928 32.8857 18.6322 32.6264 18.1226 32.2738C17.613 31.9212 17.1951 31.4545 16.8689 30.8634C16.5427 30.2722 16.3796 29.5463 16.3796 28.6855C16.3796 27.6277 16.665 26.7773 17.2358 26.1239C17.8066 25.481 18.5405 24.9728 19.4273 24.6202C20.3242 24.2676 21.3231 24.0291 22.4137 23.915C23.5145 23.8009 24.5848 23.7387 25.6244 23.7387V23.5001C25.6244 22.7742 25.3696 22.2453 24.8702 21.903C24.3707 21.5608 23.749 21.3845 23.0253 21.3845C22.3526 21.3845 21.7002 21.5297 21.0785 21.8305C20.4567 22.1208 19.9165 22.4734 19.4782 22.8883L17.0727 20.2956ZM25.7773 26.5595H25.1657C24.6459 26.5595 24.1159 26.5803 23.5961 26.6321C23.0661 26.684 22.5972 26.7773 22.1793 26.9121C21.7614 27.0469 21.425 27.2544 21.1498 27.5136C20.8848 27.7833 20.7421 28.1255 20.7421 28.5611C20.7421 28.8307 20.8033 29.0692 20.9256 29.2663C21.0479 29.4633 21.211 29.6189 21.4046 29.733C21.5983 29.847 21.8225 29.93 22.0672 29.9819C22.322 30.0337 22.5564 30.0545 22.7908 30.0545C23.749 30.0545 24.493 29.7848 25.0027 29.2455C25.5123 28.7063 25.7671 27.9803 25.7671 27.0573V26.5595H25.7773Z" fill="#F19349"/>
<path d="M42.0957 22.6186C41.7084 22.2453 41.2599 21.9341 40.7401 21.6749C40.2203 21.4156 39.6699 21.2912 39.0889 21.2912C38.6506 21.2912 38.2327 21.3845 37.8657 21.5608C37.4886 21.7371 37.3051 22.0378 37.3051 22.4734C37.3051 22.8882 37.509 23.1786 37.9269 23.3549C38.3448 23.5312 39.0073 23.7283 39.9349 23.9461C40.4751 24.0601 41.0153 24.2261 41.5657 24.4439C42.1161 24.6616 42.6053 24.9417 43.0538 25.2943C43.4921 25.6469 43.8489 26.0824 44.1241 26.5906C44.3891 27.0988 44.5318 27.7107 44.5318 28.4159C44.5318 29.3389 44.3483 30.1167 43.9814 30.7493C43.6144 31.3819 43.1354 31.9004 42.5544 32.2945C41.9632 32.6886 41.3109 32.9686 40.577 33.1449C39.8431 33.3212 39.1093 33.4146 38.3856 33.4146C37.2134 33.4146 36.0616 33.2279 34.9302 32.8442C33.7989 32.4605 32.8611 31.9004 32.1171 31.1537L34.7774 28.3018C35.2055 28.7685 35.7253 29.1626 36.3368 29.4737C36.9484 29.7848 37.6109 29.9404 38.304 29.9404C38.6914 29.9404 39.0685 29.847 39.4456 29.6604C39.8227 29.4737 40.0062 29.1418 40.0062 28.6751C40.0062 28.2292 39.7718 27.887 39.3131 27.6795C38.8544 27.4618 38.1308 27.2336 37.1421 27.0054C36.6426 26.8914 36.1432 26.7358 35.6437 26.5388C35.1443 26.3417 34.6958 26.0824 34.2983 25.7402C33.9008 25.4083 33.5848 24.9935 33.33 24.5061C33.0752 24.0187 32.9529 23.4275 32.9529 22.7431C32.9529 21.8615 33.1363 21.1149 33.5033 20.4926C33.8702 19.8704 34.3391 19.3726 34.9201 18.9785C35.501 18.5844 36.1432 18.294 36.8465 18.1073C37.5498 17.9207 38.2429 17.8273 38.9462 17.8273C40.0266 17.8273 41.0764 18.0036 42.1059 18.3459C43.1354 18.6881 44.0119 19.2066 44.7254 19.8911L42.0957 22.6186Z" fill="#F19349"/>
<path d="M55.3872 35.1465C55.1018 35.9139 54.7756 36.588 54.4188 37.1895C54.0621 37.791 53.634 38.2992 53.1448 38.714C52.6555 39.1392 52.0745 39.4503 51.412 39.6681C50.7495 39.8859 49.9646 39.9896 49.0575 39.9896C48.6192 39.9896 48.1605 39.9585 47.6815 39.8963C47.2126 39.8341 46.8049 39.7615 46.4584 39.6578L46.9782 35.6028C47.2126 35.6858 47.4674 35.748 47.7426 35.7895C48.0178 35.8413 48.2727 35.8621 48.5071 35.8621C49.241 35.8621 49.771 35.6858 50.0971 35.3435C50.4233 35.0013 50.7087 34.5139 50.9329 33.8916L51.3916 32.6886L45.3779 18.2836H50.6374L53.8481 27.6899H53.9398L56.8039 18.2836H61.8289L55.3872 35.1465Z" fill="#F19349"/>
<path d="M105.28 25.3876C105.28 25.5847 105.28 25.7817 105.28 25.9787C105.28 26.1758 105.27 26.3625 105.25 26.5388H94.8124C94.8532 26.9536 94.9755 27.3269 95.1692 27.6588C95.373 27.9907 95.6278 28.281 95.954 28.5299C96.27 28.7788 96.6267 28.9655 97.0242 29.1003C97.4217 29.2352 97.8294 29.3078 98.2473 29.3078C99.0016 29.3078 99.6335 29.1626 100.153 28.8826C100.673 28.6025 101.101 28.2292 101.427 27.7833L104.72 29.8989C104.047 30.8945 103.15 31.6723 102.049 32.2116C100.938 32.7508 99.6539 33.0205 98.1964 33.0205C97.116 33.0205 96.0967 32.8442 95.1386 32.5019C94.1703 32.1597 93.3345 31.6619 92.6108 30.9982C91.8871 30.3448 91.3163 29.5359 90.9086 28.5714C90.4907 27.6069 90.2869 26.518 90.2869 25.2839C90.2869 24.0913 90.4907 23.0023 90.8984 22.0379C91.3061 21.063 91.8565 20.2437 92.5496 19.5696C93.2427 18.8955 94.0582 18.3666 95.0061 17.9933C95.954 17.6199 96.9733 17.4332 98.0639 17.4332C99.1239 17.4332 100.092 17.6095 100.979 17.9725C101.866 18.3355 102.63 18.8644 103.262 19.5489C103.894 20.2333 104.394 21.063 104.75 22.0482C105.097 23.0127 105.28 24.1327 105.28 25.3876ZM100.918 23.5312C100.918 22.7638 100.683 22.1104 100.215 21.5608C99.7457 21.0111 99.0322 20.7415 98.0945 20.7415C97.6358 20.7415 97.2077 20.8141 96.8204 20.9593C96.433 21.1045 96.0967 21.3119 95.8113 21.5608C95.5259 21.8201 95.2915 22.1104 95.1182 22.4527C94.9449 22.7949 94.8532 23.1579 94.8328 23.5209H100.918V23.5312Z" fill="#C6D0D9"/>
<path d="M118.164 22.6186C117.899 22.266 117.532 21.986 117.063 21.7682C116.604 21.5504 116.125 21.4467 115.646 21.4467C115.147 21.4467 114.688 21.5504 114.291 21.7578C113.883 21.9653 113.536 22.2349 113.251 22.5771C112.966 22.9194 112.731 23.3135 112.568 23.7698C112.405 24.2157 112.323 24.7031 112.323 25.2113C112.323 25.7195 112.405 26.1965 112.558 26.6528C112.711 27.0988 112.935 27.5032 113.241 27.8455C113.536 28.1877 113.893 28.4573 114.311 28.6544C114.729 28.8514 115.188 28.9448 115.707 28.9448C116.187 28.9448 116.666 28.8514 117.134 28.6648C117.603 28.4781 117.991 28.2085 118.276 27.8558L120.906 31.1226C120.304 31.7138 119.54 32.1701 118.592 32.5019C117.644 32.8338 116.645 32.9997 115.585 32.9997C114.444 32.9997 113.384 32.8234 112.405 32.4708C111.416 32.1182 110.56 31.5997 109.836 30.9256C109.113 30.2515 108.542 29.4322 108.124 28.4677C107.706 27.5032 107.502 26.4247 107.502 25.2009C107.502 24.0083 107.706 22.9297 108.124 21.9653C108.542 21.0008 109.113 20.1815 109.836 19.5074C110.56 18.8333 111.416 18.3148 112.405 17.9518C113.394 17.5888 114.444 17.4125 115.555 17.4125C116.074 17.4125 116.594 17.4643 117.104 17.5577C117.613 17.651 118.103 17.7858 118.582 17.9518C119.051 18.1177 119.489 18.3251 119.886 18.574C120.284 18.8229 120.62 19.0926 120.916 19.3829L118.164 22.6186Z" fill="#C6D0D9"/>
<path d="M132.23 32.5227V24.5891C132.23 24.1742 132.199 23.7905 132.138 23.4172C132.077 23.0438 131.965 22.712 131.802 22.4319C131.639 22.1519 131.425 21.9238 131.149 21.7578C130.884 21.5919 130.528 21.5089 130.11 21.5089C129.284 21.5089 128.642 21.8097 128.204 22.4008C127.765 23.0023 127.541 23.7387 127.541 24.6202V32.5331H122.802V10.2982H127.541V19.7355H127.602C127.929 19.1444 128.448 18.6259 129.162 18.1592C129.875 17.7029 130.732 17.4644 131.73 17.4644C132.709 17.4644 133.535 17.6407 134.197 17.9933C134.86 18.3459 135.4 18.8022 135.818 19.3622C136.236 19.9222 136.531 20.5652 136.715 21.2912C136.898 22.0171 136.99 22.7431 136.99 23.469V32.5227H132.23Z" fill="#C6D0D9"/>
</svg>
