<svg width="24" height="28" viewBox="0 0 24 28" fill="none" xmlns="http://www.w3.org/2000/svg">
<path fill-rule="evenodd" clip-rule="evenodd" d="M2.11766 28H21.8824C23.0519 28 24 27.0598 24 25.9V16.1C24 15.7135 23.6839 15.4 23.2941 15.4C22.9043 15.4 22.5882 15.7135 22.5882 16.1V25.9C22.5882 26.2865 22.2721 26.6 21.8824 26.6H2.11766C1.72782 26.6 1.41178 26.2865 1.41178 25.9L1.41176 2.1C1.41176 1.71339 1.7278 1.4 2.11765 1.4H19.1509C19.5407 1.4 19.8568 1.7134 19.8568 2.1V23.1C19.8568 23.4865 20.1728 23.8 20.5626 23.8C20.9524 23.8 21.2685 23.4865 21.2685 23.1V2.1C21.2685 0.940198 20.3204 0 19.1509 0H2.11765C0.948099 0 0 0.940198 0 2.1L1.41368e-05 25.9C1.41368e-05 27.0598 0.948113 28 2.11766 28Z" fill="#C8972C"/>
<path fill-rule="evenodd" clip-rule="evenodd" d="M16.2352 5.775H4.94106V8.925H16.2352V5.775ZM4.94106 4.375C4.16137 4.375 3.5293 5.00181 3.5293 5.775V8.925C3.5293 9.69821 4.16137 10.325 4.94106 10.325H16.2352C17.0149 10.325 17.6469 9.69821 17.6469 8.925V5.775C17.6469 5.00181 17.0149 4.375 16.2352 4.375H4.94106Z" fill="#C8972C"/>
<path fill-rule="evenodd" clip-rule="evenodd" d="M3.5293 12.6001C3.5293 12.2136 3.84533 11.9001 4.23518 11.9001H16.9411C17.3309 11.9001 17.6469 12.2136 17.6469 12.6001C17.6469 12.9868 17.3309 13.3001 16.9411 13.3001H4.23518C3.84533 13.3001 3.5293 12.9868 3.5293 12.6001Z" fill="#C8972C"/>
<path fill-rule="evenodd" clip-rule="evenodd" d="M3.5293 15.4001C3.5293 15.0135 3.84533 14.7001 4.23518 14.7001H16.9411C17.3309 14.7001 17.6469 15.0135 17.6469 15.4001C17.6469 15.7868 17.3309 16.1001 16.9411 16.1001H4.23518C3.84533 16.1001 3.5293 15.7868 3.5293 15.4001Z" fill="#C8972C"/>
<path fill-rule="evenodd" clip-rule="evenodd" d="M3.5293 18.2C3.5293 17.8135 3.84533 17.5 4.23518 17.5H16.9411C17.3309 17.5 17.6469 17.8135 17.6469 18.2C17.6469 18.5867 17.3309 18.9 16.9411 18.9H4.23518C3.84533 18.9 3.5293 18.5867 3.5293 18.2Z" fill="#C8972C"/>
<path fill-rule="evenodd" clip-rule="evenodd" d="M3.5293 21C3.5293 20.6135 3.84533 20.3 4.23518 20.3H11.294C11.6838 20.3 11.9999 20.6135 11.9999 21C11.9999 21.3867 11.6838 21.7 11.294 21.7H4.23518C3.84533 21.7 3.5293 21.3867 3.5293 21Z" fill="#C8972C"/>
</svg>
